<svg xmlns="http://www.w3.org/2000/svg" viewBox="0 0 512 512" role="img" aria-label="SeeNot favicon">
  <rect width="512" height="512" rx="128" fill="#2F2F2F"/>
  <g transform="translate(64 64) scale(0.75)">
    <path d="M175 312c1.12.96 2.24 1.91 3.36 2.87.63.53 1.25 1.07 1.89 1.62 2.01 1.74 3.94 3.56 5.88 5.39 22.84 20.22 54.67 28.26 84.62 27 13.51-.84 25.41-4.15 37.25-10.88 6.73 8.24 13.43 16.49 19.95 24.89 2.33 2.99 4.72 5.91 7.21 8.77l1.57 1.79c.99 1.14 1.99 2.26 3.01 3.38L343 381c-1.4 4.21-4.36 5.28-8.06 7.31l-2.18 1.2c-22.32 12.02-47.09 16.93-72.2 16.87h-2.53c-48.5-.19-87.09-20.43-123.03-50.37 1.43-3.27 3.19-5.43 5.72-7.94l2.3-2.31c.82-.81 1.64-1.62 2.49-2.45.84-.84 1.68-1.68 2.55-2.54 2.68-2.68 5.37-5.34 8.07-8.01 1.82-1.81 3.64-3.62 5.46-5.44 4.46-4.44 8.94-8.88 13.41-13.31ZM259.13 105.61h8.01c15.67-.04 31.35 1.52 46.42 6.02l2.6.76c18.01 5.55 33.81 15.04 48.65 26.49l1.84 1.4c4.23 3.35 4.23 3.35 5.35 6.72-1.38 2.1-1.38 2.1-3.56 4.63-.83.97-1.66 1.94-2.51 2.95-.47.54-.94 1.08-1.42 1.64-2.23 2.63-4.41 5.3-6.6 7.97-1.79 2.19-3.59 4.37-5.39 6.55-2.26 2.73-4.5 5.48-6.72 8.24-.98 1.19-1.95 2.39-2.92 3.58l-1.33 1.68c-1.25 1.51-1.25 1.51-3.55 3.76-4.1 0-4.77-.19-7.95-2.34-.76-.5-1.51-1.01-2.29-1.52-.81-.54-1.62-1.08-2.45-1.64-25.62-16.62-54.22-24.26-84.73-18.9-4.32 1.09-8.13 2.6-12.08 4.65-1.15.58-2.31 1.15-3.5 1.75-3.93-1.31-5.42-3.81-7.81-7-1.96-2.56-3.93-5.12-5.9-7.68-.52-.67-1.05-1.35-1.59-2.05-2.85-3.64-5.82-7.18-8.77-10.73-5.52-6.65-10.8-13.4-15.88-20.38 16.64-17.75 48.42-20.55 71.13-20.39ZM269 225c32.34.92 66.24 2.66 90.18 27.23 15.83 18.33 21.11 44.03 19.98 67.68-.79 10.42-3.07 20.47-7.16 30.09-.99 0-1.98 0-3 0-1.8-1.83-3.39-3.64-5-5.62-.48-.59-.97-1.18-1.47-1.78-3.81-4.64-7.51-9.35-11.19-14.08-3.7-4.75-7.5-9.39-11.34-14.02-4.3-5.19-8.55-10.42-12.69-15.75-3.5-4.51-7.1-8.91-10.81-13.25-4.19-4.9-8.21-9.9-12.16-14.99-3.7-4.74-7.5-9.38-11.34-14.01-4.88-5.89-9.66-11.83-14.35-17.87-2.37-3.03-4.79-5.99-7.34-8.88-2.31-2.75-2.31-2.75-2.31-4.75ZM160 159c3.33.22 4.14 1.16 6.41 3.7.89 1.18 1.78 2.36 2.65 3.55.98 1.29 1.96 2.57 2.94 3.86.5.65 1 1.31 1.51 1.98 2.24 2.88 4.61 5.64 6.99 8.41 4.19 4.89 8.2 9.9 12.16 14.98 4.35 5.58 8.85 11.03 13.36 16.48 3.66 4.43 7.28 8.89 10.86 13.39 2.85 3.57 5.74 7.11 8.62 10.65 3.52 4.32 7.03 8.64 10.5 13 3.46 4.33 6.94 8.64 10.44 12.94l1.68 2.07c2.56 3.15 5.13 6.3 7.72 9.43.81.99 1.63 1.98 2.47 3 .72.86 1.44 1.73 2.18 2.62 1.51 1.94 1.51 1.94 1.51 2.94-29.51-1.16-60.3-4.07-83-25-11.42-10.3-19.02-28.05-19.69-47.85-.28-15.47.11-30 6.29-44.42Z" fill="#FFFFFF"/>
  </g>
</svg>
